Coordinates
version=1
nRows=34
nColumns=38
inDegrees=no

Units are S.I. units (second, meters, Newtons, ...)
If the header above contains a line with 'inDegrees', this indicates whether rotational values are in degrees (yes) or radians (no).

endheader
time	pelvis_tilt	pelvis_list	pelvis_rotation	pelvis_tx	pelvis_ty	pelvis_tz	hip_flexion_r	hip_adduction_r	hip_rotation_r	knee_angle_r	ankle_angle_r	subtalar_angle_r	mtp_angle_r	hip_flexion_l	hip_adduction_l	hip_rotation_l	knee_angle_l	ankle_angle_l	subtalar_angle_l	mtp_angle_l	lumbar_extension	lumbar_bending	lumbar_rotation	arm_flex_r	arm_add_r	arm_rot_r	elbow_flex_r	pro_sup_r	wrist_flex_r	wrist_dev_r	arm_flex_l	arm_add_l	arm_rot_l	elbow_flex_l	pro_sup_l	wrist_flex_l	wrist_dev_l
0	3.07904	1.29982	-1.43513	0.690777	-1.0216	1.01341	0.252008	-0.0555189	-0.469484	0.47344	-0.142818	0	0	-0.407841	-0.0611318	-0.332498	0.441902	-0.104749	0	0	-0.60741	0.201884	0.445021	-0.383603	-0.294811	-0.684663	1.97462	0.729874	0	0	0.612518	-0.261469	0.57243	1.14333	0.799672	0	0
0.01	3.08246	1.29794	-1.43242	0.692033	-1.01238	1.01211	0.241301	-0.0470394	-0.443439	0.445906	-0.141579	0	0	-0.413384	-0.0667711	-0.327728	0.455249	-0.0999709	0	0	-0.608146	0.203064	0.447533	-0.38514	-0.294498	-0.692226	1.97085	0.736098	0	0	0.622729	-0.253452	0.580933	1.13342	0.800269	0	0
0.02	3.08571	1.29544	-1.43077	0.693169	-1.00173	1.01062	0.238156	-0.0467019	-0.434963	0.454559	-0.139439	0	0	-0.421974	-0.0730164	-0.329375	0.467819	-0.095986	0	0	-0.608552	0.205755	0.446983	-0.38656	-0.294771	-0.695206	1.96867	0.742537	0	0	0.625201	-0.24993	0.583448	1.12992	0.800085	0	0
0.03	3.0851	1.29204	-1.42547	0.694276	-0.990593	1.00917	0.233533	-0.0457348	-0.425643	0.470849	-0.140303	0	0	-0.43055	-0.0812123	-0.333033	0.485192	-0.0913136	0	0	-0.609514	0.210246	0.446281	-0.388303	-0.295447	-0.697408	1.96696	0.750199	0	0	0.625325	-0.247372	0.584201	1.12802	0.800674	0	0
0.04	-3.10575	1.35848	-1.59447	0.703164	-0.970523	1.00412	0.321923	-0.0480722	-0.293416	0.529314	-0.127141	0	0	-0.399166	-0.0262173	-0.415115	0.451375	-0.117874	0	0	-0.523706	0.144409	0.498042	-0.40546	-0.272549	-0.689172	1.93129	0.771918	0	0	0.597279	-0.240042	0.582911	1.10064	0.81737	0	0
0.05	-3.09928	1.35456	-1.5959	0.704406	-0.958635	1.00243	0.323558	-0.0541055	-0.29773	0.578953	-0.128296	0	0	-0.407384	-0.0322803	-0.417574	0.47082	-0.115791	0	0	-0.524641	0.146807	0.496711	-0.409493	-0.272108	-0.691802	1.93098	0.783165	0	0	0.597195	-0.239265	0.585691	1.10034	0.819587	0	0
0.06	-3.11272	1.3492	-1.57724	0.705825	-0.946951	1.00121	0.304515	-0.0440442	-0.277416	0.578711	-0.136892	0	0	-0.415101	-0.0436808	-0.418198	0.49414	-0.113765	0	0	-0.529239	0.153504	0.500101	-0.416257	-0.27019	-0.696576	1.93993	0.730805	0	0	0.600166	-0.236858	0.593485	1.09874	0.815221	0	0
0.07	-3.12499	1.34159	-1.55866	0.706917	-0.935392	1.00003	0.29571	-0.0437718	-0.278468	0.601261	-0.146185	0	0	-0.423282	-0.054757	-0.414858	0.520314	-0.112003	0	0	-0.545401	0.151753	0.530549	-0.454489	-0.259779	-0.73785	1.95792	0.736245	0	0	0.619	-0.217656	0.619206	1.1	0.819072	0	0
0.08	-3.1396	1.33875	-1.53789	0.708253	-0.923875	0.999131	0.294666	-0.0448766	-0.279849	0.618161	-0.156909	0	0	-0.423612	-0.0660569	-0.404373	0.551005	-0.111517	0	0	-0.539068	0.169951	0.500821	-0.425837	-0.27207	-0.705053	1.94452	0.74887	0	0	0.598545	-0.233043	0.595596	1.10008	0.812688	0	0
0.09	3.11917	1.33347	-1.50844	0.70964	-0.912716	0.998814	0.289986	-0.0417611	-0.282389	0.630594	-0.171977	0	0	-0.423837	-0.0792309	-0.391582	0.585919	-0.112369	0	0	-0.544985	0.181916	0.498988	-0.424767	-0.274799	-0.703999	1.94643	0.744281	0	0	0.59481	-0.233055	0.592116	1.10076	0.813901	0	0
0.1	3.09332	1.32872	-1.47948	0.71132	-0.901584	0.998892	0.284554	-0.0354363	-0.284254	0.643966	-0.193409	0	0	-0.421231	-0.0924363	-0.378999	0.624481	-0.115705	0	0	-0.551281	0.193181	0.499662	-0.423859	-0.276208	-0.704112	1.94875	0.739997	0	0	0.591735	-0.233671	0.590405	1.10125	0.818574	0	0
0.11	3.07496	1.32589	-1.46105	0.713453	-0.89045	0.999025	0.284392	-0.0295067	-0.27926	0.671713	-0.210588	0	0	-0.415242	-0.102531	-0.367061	0.665141	-0.122126	0	0	-0.556029	0.200341	0.50214	-0.422533	-0.276242	-0.704237	1.95047	0.735988	0	0	0.588605	-0.233813	0.588277	1.10163	0.821427	0	0
0.12	3.06258	1.32622	-1.45065	0.715929	-0.879196	0.999109	0.287135	-0.0225868	-0.262745	0.68616	-0.223562	0	0	-0.403921	-0.110274	-0.355714	0.70938	-0.134646	0	0	-0.557001	0.203813	0.505806	-0.421489	-0.274901	-0.706081	1.94618	0.775456	0	0	0.586239	-0.232807	0.58794	1.10007	0.814337	0	0
0.13	3.05899	1.32501	-1.44866	0.718675	-0.867975	0.999293	0.290114	-0.0158288	-0.241931	0.717014	-0.223056	0	0	-0.392648	-0.115655	-0.340818	0.754846	-0.146528	0	0	-0.559031	0.204322	0.508251	-0.420122	-0.272944	-0.705614	1.94494	0.783674	0	0	0.585507	-0.233403	0.589677	1.09838	0.808528	0	0
0.14	3.05484	1.32095	-1.44387	0.721282	-0.856808	0.999862	0.283876	-0.0081237	-0.228718	0.725462	-0.222729	0	0	-0.380096	-0.122719	-0.330074	0.809096	-0.159114	0	0	-0.563424	0.205851	0.509418	-0.419033	-0.271351	-0.705237	1.94331	0.792679	0	0	0.585783	-0.23394	0.592065	1.09611	0.805201	0	0
0.15	3.05394	1.31488	-1.44185	0.724186	-0.845911	1.00059	0.275688	-0.00201332	-0.220652	0.747286	-0.217335	0	0	-0.370645	-0.128121	-0.304906	0.849979	-0.175643	0	0	-0.571216	0.203566	0.507568	-0.415314	-0.269322	-0.699362	1.94866	0.722503	0	0	0.581935	-0.189513	0.545236	1.06148	0.742685	0	0
0.16	3.04249	1.31371	-1.4282	0.726709	-0.834847	1.00139	0.266772	0.00481108	-0.222044	0.74534	-0.213484	0	0	-0.351674	-0.135043	-0.28306	0.89879	-0.194233	0	0	-0.571588	0.208872	0.513955	-0.420235	-0.264669	-0.705441	1.9494	0.73083	0	0	0.593674	-0.237457	0.610117	1.08983	0.79273	0	0
0.17	3.03405	1.31001	-1.41696	0.729278	-0.82428	1.00208	0.255362	0.0109821	-0.224999	0.750122	-0.20826	0	0	-0.334058	-0.141106	-0.260226	0.946988	-0.207954	0	0	-0.575849	0.209835	0.508567	-0.415252	-0.266464	-0.698859	1.9457	0.737898	0	0	0.585707	-0.192051	0.55519	1.05561	0.736172	0	0
0.18	3.02016	1.3131	-1.40064	0.731666	-0.813549	1.00247	0.250033	0.0176303	-0.226552	0.75352	-0.201005	0	0	-0.308697	-0.145803	-0.235976	0.993743	-0.216477	0	0	-0.570571	0.215874	0.512115	-0.418387	-0.263717	-0.701008	1.94602	0.733112	0	0	0.595715	-0.242576	0.617901	1.08542	0.796707	0	0
0.19	3.00996	1.31423	-1.38843	0.734064	-0.803174	1.00283	0.241989	0.02364	-0.22617	0.757012	-0.191618	0	0	-0.285977	-0.148883	-0.212935	1.03753	-0.216669	0	0	-0.568913	0.218349	0.511662	-0.417984	-0.264147	-0.698684	1.94478	0.729762	0	0	0.595719	-0.242689	0.617308	1.08377	0.7989	0	0
0.2	3.00162	1.31634	-1.37889	0.736422	-0.79294	1.00313	0.235396	0.0280953	-0.226954	0.761789	-0.175666	0	0	-0.263051	-0.149944	-0.191267	1.07852	-0.197504	0	0	-0.566347	0.219907	0.510929	-0.417502	-0.266078	-0.69653	1.93962	0.76027	0	0	0.594856	-0.243875	0.616169	1.08359	0.799021	0	0
0.21	2.99673	1.3156	-1.37438	0.738785	-0.782935	1.00378	0.22572	0.0329998	-0.226093	0.765125	-0.171164	0	0	-0.244788	-0.150177	-0.175988	1.11362	-0.177778	0	0	-0.568157	0.220237	0.512824	-0.417671	-0.267166	-0.694214	1.9431	0.723236	0	0	0.595024	-0.244682	0.61582	1.08473	0.798312	0	0
0.22	3.02261	1.31443	-1.39929	0.740844	-0.772417	1.00418	0.237024	0.00478518	-0.283034	0.82746	-0.169992	0	0	-0.229729	-0.140544	-0.163074	1.14291	-0.151604	0	0	-0.569443	0.21317	0.510737	-0.41905	-0.2665	-0.693209	1.94371	0.720313	0	0	0.595615	-0.247518	0.617425	1.08802	0.798175	0	0
0.23	3.00209	1.31218	-1.38459	0.743559	-0.763144	1.00565	0.205002	0.0399038	-0.222298	0.771173	-0.153098	0	0	-0.21284	-0.143263	-0.160813	1.16938	-0.129052	0	0	-0.575413	0.215114	0.520072	-0.418797	-0.271137	-0.696384	1.93623	0.79293	0	0	0.595304	-0.245091	0.613324	1.08836	0.803893	0	0
0.24	3.01182	1.30999	-1.39847	0.746054	-0.753384	1.00689	0.193746	0.0416234	-0.220694	0.773184	-0.144567	0	0	-0.197309	-0.136041	-0.157407	1.19096	-0.109855	0	0	-0.580577	0.209246	0.526959	-0.420411	-0.269658	-0.697119	1.94402	0.725325	0	0	0.598214	-0.244452	0.61685	1.0896	0.799191	0	0
0.25	3.03439	1.30902	-1.42434	0.748147	-0.743331	1.00766	0.196113	0.0242461	-0.253971	0.809223	-0.142089	0	0	-0.181173	-0.124506	-0.155242	1.20962	-0.0958529	0	0	-0.58322	0.200597	0.531335	-0.423463	-0.268478	-0.700522	1.94523	0.728219	0	0	0.599756	-0.243763	0.618738	1.09156	0.797094	0	0
0.26	3.02795	1.30889	-1.42401	0.750629	-0.734025	1.00911	0.171796	0.0440413	-0.217431	0.772534	-0.131678	0	0	-0.162013	-0.121261	-0.154617	1.22532	-0.0826705	0	0	-0.586677	0.197721	0.541577	-0.425249	-0.268852	-0.705018	1.94504	0.732656	0	0	0.601721	-0.239744	0.619359	1.09	0.795356	0	0
0.27	3.05092	1.30943	-1.44926	0.752339	-0.724025	1.00989	0.175291	0.020846	-0.260934	0.812264	-0.130796	0	0	-0.145918	-0.107355	-0.149115	1.23323	-0.0673978	0	0	-0.586991	0.189409	0.54527	-0.429078	-0.26735	-0.709439	1.9457	0.738091	0	0	0.60382	-0.237576	0.62243	1.08958	0.793919	0	0
0.28	3.03437	1.31119	-1.43769	0.754663	-0.714863	1.01128	0.149328	0.0461673	-0.216037	0.768322	-0.116927	0	0	-0.121599	-0.109715	-0.150905	1.24573	-0.0583074	0	0	-0.586741	0.19061	0.551081	-0.426236	-0.269542	-0.708741	1.94276	0.74564	0	0	0.603127	-0.235804	0.620068	1.0873	0.793518	0	0
0.29	3.03598	1.31249	-1.44115	0.756443	-0.70536	1.01247	0.137208	0.0481426	-0.215713	0.763838	-0.11112	0	0	-0.100613	-0.104661	-0.146159	1.25079	-0.0503248	0	0	-0.585813	0.188832	0.55242	-0.424285	-0.270328	-0.707358	1.94122	0.751192	0	0	0.602612	-0.235662	0.619278	1.08673	0.79208	0	0
0.3	3.03684	1.31315	-1.44297	0.758089	-0.695937	1.01377	0.123898	0.0511006	-0.215315	0.757341	-0.109276	0	0	-0.0801254	-0.100804	-0.141407	1.25208	-0.0459823	0	0	-0.585853	0.187677	0.553724	-0.42286	-0.270301	-0.70521	1.94362	0.728045	0	0	0.602388	-0.235298	0.618649	1.08653	0.790942	0	0
0.31	3.03847	1.31433	-1.44499	0.75969	-0.686557	1.01503	0.111302	0.0538318	-0.214773	0.751023	-0.103703	0	0	-0.0590467	-0.0974992	-0.136948	1.24975	-0.0431344	0	0	-0.584898	0.186754	0.552913	-0.419776	-0.270629	-0.702759	1.94324	0.722836	0	0	0.601583	-0.235811	0.617159	1.08594	0.789019	0	0
0.32	3.03949	1.31583	-1.44665	0.761294	-0.677259	1.0163	0.0986537	0.0558572	-0.217258	0.743325	-0.0974178	0	0	-0.0379202	-0.094846	-0.133637	1.24378	-0.0415597	0	0	-0.5836	0.185565	0.552206	-0.416741	-0.271665	-0.703156	1.93596	0.780034	0	0	0.601134	-0.236054	0.615611	1.08473	0.788772	0	0
0.33	3.04104	1.31686	-1.44924	0.762906	-0.668013	1.01763	0.084966	0.0571631	-0.222904	0.734612	-0.092603	0	0	-0.0180678	-0.0923708	-0.132063	1.23424	-0.0401317	0	0	-0.583121	0.183891	0.552547	-0.414234	-0.270473	-0.700709	1.94147	0.718985	0	0	0.601311	-0.23632	0.615125	1.08399	0.786377	0	0
